<?xml version="1.0" encoding="UTF-8" standalone="no"?>
<!DOCTYPE svg PUBLIC "-//W3C//DTD SVG 1.1//EN" "http://www.w3.org/Graphics/SVG/1.1/DTD/svg11.dtd">
<svg width="100%" height="100%" viewBox="0 0 875 1212" version="1.1" xmlns="http://www.w3.org/2000/svg" xmlns:xlink="http://www.w3.org/1999/xlink" xml:space="preserve" xmlns:serif="http://www.serif.com/" style="fill-rule:evenodd;clip-rule:evenodd;stroke-linecap:round;stroke-linejoin:round;stroke-miterlimit:1.5;">
    <g transform="matrix(1,0,0,1,-1371.94,0)">
        <g id="Artboard2" transform="matrix(0.490553,0,0,0.975783,920.057,0)">
            <rect x="921.164" y="0" width="1782.11" height="1241.39" style="fill:none;"/>
            <g transform="matrix(2.03851,0,0,1.02482,-60.3516,-96.0869)">
                <g transform="matrix(1,0,0,1,0.382027,16.9928)">
                    <path d="M1170.42,253.563C1176.89,246.492 1186.26,242.795 1195.81,243.544C1205.37,244.293 1214.04,249.403 1219.33,257.396C1258.94,317.781 1321.59,456.295 1184.37,593.515C1174.44,603.438 1164.01,611.97 1153.31,619.296C1116.83,644.268 1069.48,646.818 1030.54,625.907C991.596,604.996 967.564,564.115 968.234,519.919C968.239,519.521 968.245,519.124 968.251,518.73C968.689,489.803 979.715,462.04 999.242,440.694C1044.38,391.349 1128.45,299.453 1170.42,253.563Z" style="fill:rgb(255,195,100);stroke:rgb(81,81,81);stroke-width:32.28px;"/>
                </g>
                <g transform="matrix(-1,0,0,1,1827.65,16.9928)">
                    <path d="M1180.48,242.568C1184.34,238.355 1189.86,236.065 1195.56,236.315C1201.27,236.564 1206.57,239.327 1210.04,243.861C1247.03,294.547 1333.09,444.791 1184.37,593.515C1174.44,603.438 1164.01,611.97 1153.31,619.296C1116.83,644.268 1069.48,646.818 1030.54,625.907C991.596,604.996 967.564,564.115 968.234,519.919C968.239,519.521 968.245,519.124 968.251,518.73C968.689,489.803 979.715,462.04 999.242,440.694C1048.36,387.002 1143.56,282.933 1180.48,242.568Z" style="fill:rgb(255,195,100);stroke:rgb(81,81,81);stroke-width:32.28px;"/>
                </g>
                <path d="M914.411,217.884C920.375,222.847 991.932,283.393 1002.73,340.06C1013.99,399.2 1043.56,693.489 1036.52,745.588C1029.48,797.687 922.56,894.914 912.704,896.322C912.541,896.345 912.384,896.183 912.232,895.839C912.151,895.926 912.067,895.965 911.983,895.953C902.126,894.544 797.791,797.687 790.751,745.588C783.71,693.489 813.28,399.2 824.545,340.06C835.342,283.375 908,222.809 914.011,217.88L914.016,217.557L914.21,217.717L914.407,217.557L914.411,217.884Z" style="fill:rgb(255,195,100);stroke:rgb(81,81,81);stroke-width:32.28px;"/>
                <g transform="matrix(1.37842,-3.46945e-18,0,1,-345.738,52.268)">
                    <path d="M914.016,549.865C914.016,549.865 971.748,445.667 1028.07,466.788C1067.84,481.702 1120.25,559.808 1151.09,614.836C1156.41,624.37 1157.36,637.23 1153.54,648.045C1149.73,658.86 1141.8,665.77 1133.08,665.888C1104.75,666.289 1067.02,666.799 1034.74,667.235C992.992,667.8 954.047,638.353 931.957,589.522C922.085,567.702 914.016,549.865 914.016,549.865Z" style="fill:rgb(243,209,143);stroke:rgb(81,81,81);stroke-width:26.81px;"/>
                </g>
                <g transform="matrix(-1.37842,3.46945e-18,0,1,2173.01,52.268)">
                    <path d="M914.016,549.865C914.016,549.865 971.748,445.667 1028.07,466.788C1067.84,481.702 1120.25,559.808 1151.09,614.836C1156.41,624.37 1157.36,637.23 1153.54,648.045C1149.73,658.86 1141.8,665.77 1133.08,665.888C1104.75,666.289 1067.02,666.799 1034.74,667.235C992.992,667.8 954.047,638.353 931.957,589.522C922.085,567.702 914.016,549.865 914.016,549.865Z" style="fill:rgb(243,209,143);stroke:rgb(81,81,81);stroke-width:26.81px;"/>
                </g>
                <g transform="matrix(1,0,0,1,14.3639,-17.5624)">
                    <path d="M650.079,540C650.079,540 600.735,507.171 605.466,412.538" style="fill:none;stroke:rgb(81,81,81);stroke-width:32.28px;"/>
                </g>
                <g transform="matrix(-0.964783,0.263047,0.263047,0.964783,1681.55,-185.496)">
                    <path d="M650.079,540C650.079,540 600.735,507.171 605.466,412.538" style="fill:none;stroke:white;stroke-opacity:0.57;stroke-width:32.28px;"/>
                </g>
                <path d="M650.079,673.252L718.392,673.252" style="fill:none;stroke:rgb(81,81,81);stroke-width:32.28px;"/>
                <g transform="matrix(0.780439,0.00964857,-0.0104145,0.842391,209.804,106.668)">
                    <path d="M830.33,751.121C830.33,751.121 854.664,792.76 888.732,825.205" style="fill:none;stroke:rgb(81,81,81);stroke-width:39.75px;"/>
                </g>
                <g transform="matrix(1,0,0,1,0,26.2255)">
                    <path d="M913.11,312.965L913.11,480.263" style="fill:none;stroke:white;stroke-opacity:0.57;stroke-width:32.28px;"/>
                </g>
                <g transform="matrix(1,0,0,1,442.853,-265.597)">
                    <path d="M308.992,422.839C308.992,462.543 341.179,494.73 380.883,494.73C341.179,494.73 308.992,526.917 308.992,566.621C308.992,526.917 276.805,494.73 237.101,494.73C276.805,494.73 308.992,462.543 308.992,422.839Z" style="fill:white;stroke:rgb(81,81,81);stroke-width:32.28px;"/>
                </g>
                <g transform="matrix(1,0,0,1,811.254,339.741)">
                    <path d="M308.992,422.839C308.992,462.543 341.179,494.73 380.883,494.73C341.179,494.73 308.992,526.917 308.992,566.621C308.992,526.917 276.805,494.73 237.101,494.73C276.805,494.73 308.992,462.543 308.992,422.839Z" style="fill:white;stroke:rgb(81,81,81);stroke-width:32.28px;"/>
                </g>
                <g transform="matrix(1.57132,0,0,1.57132,36.0633,-261.443)">
                    <circle cx="501.637" cy="262.945" r="9.656" style="fill:rgb(81,81,81);"/>
                </g>
                <g transform="matrix(1.57132,0,0,1.57132,249.36,508.365)">
                    <circle cx="501.637" cy="262.945" r="9.656" style="fill:rgb(81,81,81);"/>
                </g>
                <g transform="matrix(1.57132,0,0,1.57132,-63.0975,408.317)">
                    <circle cx="501.637" cy="262.945" r="9.656" style="fill:rgb(81,81,81);"/>
                </g>
                <g transform="matrix(1.57132,0,0,1.57132,279.705,-150.413)">
                    <circle cx="501.637" cy="262.945" r="9.656" style="fill:rgb(81,81,81);"/>
                </g>
                <g transform="matrix(1.57132,0,0,1.57132,480.709,343.239)">
                    <circle cx="501.637" cy="262.945" r="9.656" style="fill:rgb(81,81,81);"/>
                </g>
                <g transform="matrix(1.57132,0,0,1.57132,480.709,187.017)">
                    <circle cx="501.637" cy="262.945" r="9.656" style="fill:rgb(81,81,81);"/>
                </g>
            </g>
            <g transform="matrix(1.63281,0,0,0.82086,-1153.22,271.371)">
                <path d="M1384.59,874.618C1382.45,874.618 1381.38,873.548 1381.38,871.408L1381.38,865.7C1381.38,856.742 1378.2,849.093 1371.86,842.751C1365.44,836.488 1357.79,833.357 1348.91,833.357C1340.04,833.357 1332.38,836.488 1325.96,842.751C1319.62,849.093 1316.45,856.742 1316.45,865.7L1316.45,940.969C1316.45,949.927 1319.62,957.577 1325.96,963.918C1332.31,970.26 1339.96,973.431 1348.91,973.431C1357.87,973.431 1365.52,970.26 1371.86,963.918C1378.2,957.577 1381.38,949.927 1381.38,940.969L1381.38,921.825L1344.87,921.825C1342.65,921.825 1341.54,920.715 1341.54,918.496L1341.54,907.08C1341.54,904.94 1342.65,903.87 1344.87,903.87L1382.45,903.87C1387.04,903.87 1390.97,905.495 1394.22,908.745C1397.55,912.074 1399.21,916.078 1399.21,920.755L1399.21,940.969C1399.21,954.842 1394.3,966.693 1384.47,976.523C1374.64,986.353 1362.79,991.267 1348.91,991.267C1335.12,991.267 1323.27,986.353 1313.36,976.523C1303.53,966.693 1298.62,954.842 1298.62,940.969L1298.62,865.7C1298.62,851.828 1303.53,839.976 1313.36,830.147C1323.27,820.317 1335.12,815.402 1348.91,815.402C1362.71,815.402 1374.56,820.317 1384.47,830.147C1394.3,839.976 1399.21,851.828 1399.21,865.7L1399.21,871.408C1399.21,873.548 1398.14,874.618 1396,874.618L1384.59,874.618Z" style="fill:rgb(81,81,81);fill-rule:nonzero;stroke:rgb(81,81,81);stroke-width:16.95px;stroke-linecap:butt;stroke-miterlimit:2;"/>
                <path d="M1575.43,870.219C1577.57,870.219 1578.64,871.289 1578.64,873.429L1578.64,949.65C1578.64,961.144 1574.6,970.974 1566.52,979.139C1558.35,987.225 1548.52,991.267 1537.03,991.267C1522.36,991.267 1511.5,988.097 1504.44,981.755C1497.39,988.097 1486.49,991.267 1471.75,991.267C1460.25,991.267 1450.46,987.225 1442.38,979.139C1434.21,970.974 1430.13,961.144 1430.13,949.65L1430.13,873.429C1430.13,871.289 1431.2,870.219 1433.34,870.219L1444.75,870.219C1446.97,870.219 1448.08,871.289 1448.08,873.429L1448.08,949.65C1448.08,956.229 1450.38,961.818 1454.98,966.416C1459.66,971.093 1465.25,973.431 1471.75,973.431C1482.05,973.431 1488.99,971.687 1492.56,968.199C1494.54,966.297 1495.53,963.364 1495.53,959.4L1495.53,873.429C1495.53,871.289 1496.64,870.219 1498.86,870.219L1510.03,870.219C1512.25,870.219 1513.36,871.289 1513.36,873.429L1513.36,959.4C1513.36,963.364 1514.36,966.297 1516.34,968.199C1519.82,971.687 1526.72,973.431 1537.03,973.431C1543.61,973.431 1549.19,971.093 1553.79,966.416C1558.39,961.818 1560.69,956.229 1560.69,949.65L1560.69,873.429C1560.69,871.289 1561.8,870.219 1564.02,870.219L1575.43,870.219Z" style="fill:rgb(81,81,81);fill-rule:nonzero;stroke:rgb(81,81,81);stroke-width:16.95px;stroke-linecap:butt;stroke-miterlimit:2;"/>
                <path d="M1705.4,988.057C1705.4,990.197 1704.33,991.267 1702.19,991.267L1626.44,991.267C1621.77,991.267 1617.81,989.642 1614.56,986.392C1611.23,983.063 1609.56,979.099 1609.56,974.501L1609.56,935.024C1609.56,927.334 1612.3,920.755 1617.77,915.285C1623.24,909.815 1629.81,907.08 1637.5,907.08L1669.61,907.08C1675.87,907.08 1681.22,904.861 1685.66,900.421C1690.1,895.982 1692.32,890.671 1692.32,884.488L1692.32,865.819C1692.32,856.861 1689.11,849.212 1682.69,842.87C1676.35,836.528 1668.74,833.357 1659.86,833.357C1650.9,833.357 1643.25,836.528 1636.91,842.87C1630.57,849.212 1627.4,856.861 1627.4,865.819L1627.4,871.408C1627.4,873.627 1626.37,874.737 1624.31,874.737L1612.77,874.737C1610.63,874.737 1609.56,873.627 1609.56,871.408L1609.56,865.819C1609.56,851.947 1614.48,840.095 1624.31,830.266C1634.13,820.436 1645.99,815.521 1659.86,815.521C1673.65,815.521 1685.46,820.436 1695.29,830.266C1705.2,840.095 1710.16,851.947 1710.16,865.819L1710.16,884.488C1710.16,895.586 1706.19,905.099 1698.27,913.026C1690.34,920.953 1680.79,924.917 1669.61,924.917L1637.5,924.917C1634.73,924.917 1632.35,925.907 1630.37,927.889C1628.39,929.871 1627.4,932.249 1627.4,935.024L1627.4,973.431L1702.19,973.431C1704.33,973.431 1705.4,974.501 1705.4,976.642L1705.4,988.057Z" style="fill:rgb(81,81,81);fill-rule:nonzero;stroke:rgb(81,81,81);stroke-width:16.95px;stroke-linecap:butt;stroke-miterlimit:2;"/>
                <path d="M1826.09,921.587C1826.09,912.312 1822.8,904.425 1816.22,897.924C1809.64,891.345 1801.72,888.055 1792.44,888.055C1783.17,888.055 1775.28,891.345 1768.78,897.924C1762.2,904.425 1758.91,912.312 1758.91,921.587L1758.91,939.78C1758.91,949.055 1762.2,956.982 1768.78,963.562C1775.28,970.141 1783.17,973.431 1792.44,973.431C1801.72,973.431 1809.64,970.141 1816.22,963.562C1822.8,956.982 1826.09,949.055 1826.09,939.78L1826.09,921.587ZM1792.44,870.219C1806.63,870.219 1818.76,875.213 1828.83,885.201C1838.89,895.269 1843.93,907.397 1843.93,921.587L1843.93,939.78C1843.93,953.97 1838.89,966.098 1828.83,976.166C1818.76,986.234 1806.63,991.267 1792.44,991.267C1779.84,991.267 1768.66,987.066 1758.91,978.663L1758.91,1029.08C1758.91,1031.22 1757.84,1032.29 1755.7,1032.29L1744.28,1032.29C1742.14,1032.29 1741.07,1031.22 1741.07,1029.08L1741.07,919.328L1741.19,919.328C1741.75,905.614 1746.98,894 1756.89,884.488C1766.8,874.975 1778.65,870.219 1792.44,870.219Z" style="fill:rgb(81,81,81);fill-rule:nonzero;stroke:rgb(81,81,81);stroke-width:16.95px;stroke-linecap:butt;stroke-miterlimit:2;"/>
                <path d="M1892.8,988.057C1892.8,990.197 1891.73,991.267 1889.59,991.267L1878.17,991.267C1875.95,991.267 1874.85,990.197 1874.85,988.057L1874.85,912.907C1874.85,901.175 1879.05,891.107 1887.45,882.704C1895.85,874.301 1905.92,870.1 1917.65,870.1C1926.69,870.1 1934.97,872.795 1942.5,878.186C1946.78,881.277 1950.27,884.884 1952.97,889.006L1956.18,893.644C1956.73,894.357 1957.01,895.031 1957.01,895.665C1957.01,896.616 1956.46,897.488 1955.35,898.281L1945.83,904.583C1945.36,904.9 1944.8,905.059 1944.17,905.059L1943.57,905.059C1942.62,904.9 1941.91,904.425 1941.43,903.632L1938.34,898.995C1936.44,896.299 1934.34,894.199 1932.04,892.692C1927.92,889.601 1923.12,888.055 1917.65,888.055C1910.76,888.055 1904.89,890.512 1900.05,895.427C1895.22,900.263 1892.8,906.089 1892.8,912.907L1892.8,988.057Z" style="fill:rgb(81,81,81);fill-rule:nonzero;stroke:rgb(81,81,81);stroke-width:16.95px;stroke-linecap:butt;stroke-miterlimit:2;"/>
                <path d="M2035.73,888.055C2026.45,888.055 2018.53,891.345 2011.95,897.924C2005.45,904.425 2002.2,912.312 2002.2,921.587L2002.2,939.899C2002.2,949.095 2005.45,956.982 2011.95,963.562C2018.53,970.141 2026.45,973.431 2035.73,973.431C2045,973.431 2052.93,970.141 2059.51,963.562C2066.01,956.982 2069.26,949.095 2069.26,939.899L2069.26,921.587C2069.26,912.312 2066.01,904.425 2059.51,897.924C2052.93,891.345 2045,888.055 2035.73,888.055ZM2035.73,991.267C2021.54,991.267 2009.41,986.234 1999.34,976.166C1989.35,966.098 1984.36,954.009 1984.36,939.899L1984.36,921.587C1984.36,907.397 1989.35,895.308 1999.34,885.32C2009.41,875.253 2021.54,870.219 2035.73,870.219C2049.92,870.219 2062.05,875.253 2072.11,885.32C2082.1,895.308 2087.1,907.397 2087.1,921.587L2087.1,939.899C2087.1,954.009 2082.1,966.098 2072.11,976.166C2062.05,986.234 2049.92,991.267 2035.73,991.267Z" style="fill:rgb(81,81,81);fill-rule:nonzero;stroke:rgb(81,81,81);stroke-width:16.95px;stroke-linecap:butt;stroke-miterlimit:2;"/>
                <path d="M2169.38,888.055C2160.11,888.055 2152.18,891.345 2145.6,897.924C2139.1,904.425 2135.85,912.312 2135.85,921.587L2135.85,939.899C2135.85,949.095 2139.1,956.982 2145.6,963.562C2152.18,970.141 2160.11,973.431 2169.38,973.431C2178.66,973.431 2186.58,970.141 2193.16,963.562C2199.66,956.982 2202.91,949.095 2202.91,939.899L2202.91,921.587C2202.91,912.312 2199.66,904.425 2193.16,897.924C2186.58,891.345 2178.66,888.055 2169.38,888.055ZM2169.38,991.267C2155.19,991.267 2143.06,986.234 2132.99,976.166C2123.01,966.098 2118.01,954.009 2118.01,939.899L2118.01,921.587C2118.01,907.397 2123.01,895.308 2132.99,885.32C2143.06,875.253 2155.19,870.219 2169.38,870.219C2183.57,870.219 2195.7,875.253 2205.77,885.32C2215.76,895.308 2220.75,907.397 2220.75,921.587L2220.75,939.899C2220.75,954.009 2215.76,966.098 2205.77,976.166C2195.7,986.234 2183.57,991.267 2169.38,991.267Z" style="fill:rgb(81,81,81);fill-rule:nonzero;stroke:rgb(81,81,81);stroke-width:16.95px;stroke-linecap:butt;stroke-miterlimit:2;"/>
                <path d="M2313.85,833.238C2307.99,833.238 2302.95,835.339 2298.75,839.54C2294.55,843.742 2292.45,848.776 2292.45,854.642L2292.45,868.554L2337.64,868.554C2339.86,868.554 2340.97,869.624 2340.97,871.765L2340.97,883.18C2340.97,885.32 2339.86,886.39 2337.64,886.39L2292.45,886.39L2292.45,988.057C2292.45,990.197 2291.38,991.267 2289.24,991.267L2277.94,991.267C2275.8,991.267 2274.73,990.197 2274.73,988.057L2274.73,886.39L2254.99,886.39C2252.78,886.39 2251.66,885.32 2251.66,883.18L2251.66,871.765C2251.66,869.624 2252.78,868.554 2254.99,868.554L2274.73,868.554L2274.73,854.642C2274.73,843.861 2278.54,834.626 2286.15,826.936C2293.84,819.247 2303.07,815.402 2313.85,815.402C2322.57,815.402 2330.38,818.018 2337.28,823.25L2339.78,825.153C2340.73,825.945 2341.2,826.778 2341.2,827.65C2341.2,828.284 2340.97,828.958 2340.49,829.671L2333.59,838.708C2332.8,839.739 2331.97,840.254 2331.1,840.254C2330.46,840.254 2329.79,839.976 2329.07,839.422L2326.7,837.519C2322.81,834.665 2318.53,833.238 2313.85,833.238Z" style="fill:rgb(81,81,81);fill-rule:nonzero;stroke:rgb(81,81,81);stroke-width:16.95px;stroke-linecap:butt;stroke-miterlimit:2;"/>
            </g>
        </g>
    </g>
</svg>
